<svg xmlns="http://www.w3.org/2000/svg" width="150" height="80" viewBox="0 0 1620 670"><defs><style>.a{fill:#f4f4f5;}.b{fill:#a55b80;}</style></defs><title>bdLogoMain</title><path class="a" d="M625.97,421V278.8125h50.4717q24.9814,0,38.03,9.668,13.0473,9.6679,13.0478,28.8086a29.9512,29.9512,0,0,1-5.4619,17.5781q-5.4624,7.8135-15.9814,12.1094,11.9355,3.1258,18.459,11.7675t6.5244,20.752q0,20.02-13.3,30.7617Q704.4575,421.001,679.6777,421Zm25.59-82.3242h25.084q11.934,0,18.6611-5.2246t6.7266-14.7949q0-10.5469-6.2208-15.2344t-19.3691-4.6875H651.56Zm0,18.164v44.4336h28.4218q12.0353,0,18.8135-5.7617,6.7734-5.7612,6.7764-16.0156,0-22.1674-23.4658-22.6563Z"/><path class="a" d="M780.4189,421H755.84V271h24.5791Z"/><path class="a" d="M802.57,367.1914a60.5185,60.5185,0,0,1,6.3711-27.9785,45.5392,45.5392,0,0,1,17.9033-19.1406q11.53-6.6885,26.5-6.69,22.15,0,35.9571,13.77t14.9189,36.5235l.1016,5.5664a61.0524,61.0524,0,0,1-6.2207,27.93A44.9919,44.9919,0,0,1,880.3,416.2148q-11.5826,6.7383-26.7529,6.7383-23.1621,0-37.07-14.8926T802.57,368.3633Zm24.5781,2.0508q0,16.3095,6.9786,25.5371t19.42,9.2285q12.4408,0,19.3691-9.375t6.9287-27.4414q0-16.0152-7.1308-25.3906t-19.3692-9.375q-12.0381,0-19.1162,9.2285Q827.1474,350.8828,827.1484,369.2422Z"/><path class="a" d="M970.0664,404.0078q9.2022,0,15.2734-5.1758a17.4632,17.4632,0,0,0,6.4727-12.7929h23.1621a34.0686,34.0686,0,0,1-6.3711,18.4082A41.4207,41.4207,0,0,1,992.42,417.9727a49.6483,49.6483,0,0,1-22.05,4.98q-22.9614,0-36.4131-14.3554t-13.4511-39.6485v-2.4414q0-24.12,13.3505-38.623,13.3521-14.502,36.4122-14.502,19.519,0,31.8105,10.9863,12.2886,10.9864,12.8955,28.8575H991.8125a21.3693,21.3693,0,0,0-6.4219-14.9414q-6.02-5.8594-15.3242-5.8594-11.9355,0-18.4082,8.35-6.4746,8.35-6.5742,25.3418v3.8086q0,17.1885,6.4219,25.6347Q957.9277,404.0084,970.0664,404.0078Z"/><path class="a" d="M1069.0879,375.6875l-10.9238,10.84V421h-24.5782V271h24.5782v86.5234l7.6875-9.2773,30.2422-32.91h29.5341l-40.6611,44.043L1129.9766,421h-28.4219Z"/><path class="a" d="M1177.2129,278.8125l42.4805,108.9844,42.3789-108.9844h33.0761V421h-25.49V374.125l2.5293-62.6953L1228.6953,421h-18.3066l-43.3926-109.4727,2.5293,62.5977V421h-25.4883V278.8125Z"/><path class="a" d="M1350.9805,401.2734h66.8574V421h-92.4473V278.8125h25.59Z"/><path class="a" d="M161.2806,599.896c-.0033-.0167-84.06.012-118.5645,0-29.73.6887-25.0351-.8028-25.3566-44.2411.728-40.9612-1.9751-89.05,2.0974-91.66,6.5571-7.9971,10.7762-4.0568,12.5029-5.0039,20.1327.0011,115.298.0011,127.9414.0011,17.5224.1845,11.1141,18.2172,12.2553,55.7456C171.0052,581.6539,177.29,598.8222,161.2806,599.896Z"/><path d="M159.6738,602.0078l-.0239-.1152c-5.3257-.0049-23.248-.002-43.5142.001-25.5864.0039-55.8955.0068-73.42.0019-12.6411.292-19.4448.2647-23.4087-3.6455-4.2148-4.1582-4.1416-11.83-3.9956-27.1143.043-4.4873.0918-9.5732.0479-15.4658.2529-14.2715.0888-29.5967-.0562-43.1162-.3955-36.9238-.1133-47.4619,2.7432-49.9912,5.4565-6.5552,9.894-5.8833,12.2886-5.5166.2729.0415.6313.0957.8232.104l.29-.1587,128.4536.0015c4.5244.0473,7.8242,1.22,10.1084,3.5844,4.8047,4.9727,4.5854,14.1417,4.2221,29.3331-.1709,7.1611-.3652,15.2773-.0766,24.7675-.3125,18.2959-.0757,32.7305.1147,44.33.5152,31.3985.6885,41.9756-12.8554,42.8828ZM20.6963,465.5762c-1.8633,3.0908-1.6138,26.3711-1.3931,46.9345.145,13.5469.31,28.9014.0557,43.18.0444,5.877-.0044,10.9805-.0474,15.4834-.1313,13.709-.2036,21.2608,2.8047,24.2285,2.6514,2.6153,8.5806,2.7686,20.5537,2.4942,17.5733.0068,47.8794.0019,73.4654-.0029l31.8676-.003,12.3565.002c.2539.001.5219.001.7885.0195l-.0009-.0117c9.4214-.6318,9.64-7.3223,9.1235-38.8272-.1909-11.6289-.4282-26.1015-.1138-44.3691-.2915-9.5029-.0957-17.6777.0767-24.89.3267-13.6622.5425-22.6875-3.1-26.4581-1.5234-1.5771-3.8281-2.3281-7.2529-2.3642l-127.5362-.001A5.67,5.67,0,0,1,29.7334,461c-1.9629-.2959-4.6538-.708-8.73,4.2637Zm.0547-.084Z"/><path class="a" d="M294.2952,307.86v98.2482A21.11,21.11,0,0,1,273.396,427.436H38.2586a21.11,21.11,0,0,1-20.8992-21.3277V307.86a21.1094,21.1094,0,0,1,20.8992-21.3276H273.396A21.1094,21.1094,0,0,1,294.2952,307.86Z"/><path d="M273.3965,429.436H38.2588a23.1426,23.1426,0,0,1-22.8994-23.3276V307.86a23.1422,23.1422,0,0,1,22.8994-23.3272H273.3965A23.142,23.142,0,0,1,296.2949,307.86v98.2485A23.1424,23.1424,0,0,1,273.3965,429.436ZM38.2588,288.5327A19.1382,19.1382,0,0,0,19.3594,307.86v98.2485A19.1387,19.1387,0,0,0,38.2588,425.436H273.3965a19.1381,19.1381,0,0,0,18.8984-19.3276V307.86a19.1377,19.1377,0,0,0-18.8984-19.3272Z"/><path class="a" d="M264.9034,263.6709v22.8616H210.6919c.7936-25.1789-5.231-33.8927,18.9439-32.29C248.4651,255.1832,264.1071,249.982,264.9034,263.6709Z"/><path d="M266.9033,288.5327H208.6279l.065-2.063c.1523-4.8325.0512-9.0317-.0381-12.7363-.2134-8.8355-.354-14.6729,3.3872-18.2593,3.05-2.9253,8.1865-3.86,17.7261-3.227,4.6626.2339,9.2666.0747,13.3281-.065,12.396-.4214,23.0972-.792,23.8042,11.3726l.0029.1162Zm-54.1611-4h50.1611V263.731c-.4863-7.8589-6.7373-7.9961-19.67-7.5508-4.1421.1416-8.8345.3037-13.6973.06-8.1035-.5351-12.6367.1177-14.726,2.1211-2.4678,2.3662-2.3443,7.502-2.1568,15.2754C212.731,276.8608,212.8179,280.4541,212.7422,284.5327Z"/><path class="a" d="M181.9533,263.5078v23.0247H127.7418c.7933-25.3857-5.2419-33.8591,18.9438-32.29C165.4081,255.1618,181.1777,250.0619,181.9533,263.5078Z"/><path d="M183.9531,288.5327H125.6782l.0645-2.0625c.1523-4.8818.05-9.1055-.04-12.832-.2129-8.8-.354-14.6133,3.3531-18.1729,3.0288-2.9077,8.1733-3.8413,17.7587-3.2182,4.628.2251,9.2159.0713,13.2637-.064,12.436-.4224,23.18-.78,23.8711,11.21l.0034.1152Zm-54.1611-4h50.1611V263.5674c-.4731-7.6929-6.7544-7.8247-19.74-7.3867-4.1255.1386-8.8028.2959-13.626.06-8.15-.5288-12.69.1231-14.7607,2.11-2.4361,2.3393-2.3121,7.4516-2.125,15.1909C129.78,276.7891,129.8677,280.41,129.792,284.5327Z"/><path class="a" d="M100.31,263.5078v23.0247H46.098c.7933-25.3857-5.2419-33.8591,18.9438-32.29C83.7643,255.1618,99.5339,250.0619,100.31,263.5078Z"/><path d="M102.31,288.5327H44.0347l.0644-2.0625c.1524-4.8813.05-9.105-.04-12.8315-.2129-8.8-.3535-14.6138,3.353-18.1729,3.0293-2.9082,8.1743-3.8418,17.7593-3.2187,4.6269.2275,9.2163.0727,13.2632-.064,12.4409-.4209,23.18-.78,23.8716,11.21l.0034.1152Zm-54.1612-4H98.31V263.5674c-.4737-7.6934-6.752-7.8247-19.74-7.3867-4.1259.1391-8.8017.2959-13.6255.06-8.1494-.5288-12.6909.1231-14.7612,2.1109-2.4355,2.3388-2.312,7.4516-2.1245,15.1909C48.1367,276.79,48.2241,280.41,48.1484,284.5327Z"/><path class="b" d="M497.3916,241.1178l-54.0693,81.11a20.6923,20.6923,0,0,1-29.05,5.67L219.4917,193.59a21.4912,21.4912,0,0,1-5.5749-29.5446L267.9861,82.936a20.6923,20.6923,0,0,1,29.05-5.67L491.8166,211.5733A21.4911,21.4911,0,0,1,497.3916,241.1178Z"/><path d="M425.9678,333.5713a22.5258,22.5258,0,0,1-12.8311-4.0278l-194.78-134.3072a23.5311,23.5311,0,0,1-6.1035-32.3l54.0694-81.1093a22.7409,22.7409,0,0,1,14.7207-9.8243A22.4974,22.4974,0,0,1,298.1719,75.62l194.78,134.3072a23.5321,23.5321,0,0,1,6.1036,32.3l-54.0694,81.1093a22.808,22.808,0,0,1-19.0185,10.2349ZM285.3311,75.5933A18.7918,18.7918,0,0,0,269.65,84.0454l-54.0693,81.1094a19.5138,19.5138,0,0,0,5.0459,26.7886L415.4082,326.2505a18.5261,18.5261,0,0,0,14.1035,2.9819,18.77,18.77,0,0,0,12.1465-8.1147l54.0693-81.1094a19.5133,19.5133,0,0,0-5.0468-26.7886L295.9,78.9126A18.5528,18.5528,0,0,0,285.3311,75.5933Z"/><path class="b" d="M497.0366,187.8514,484.559,206.569l-44.71-30.8291c13.9985-19.4981,14.1615-30.8368,32.87-15.9242C487.7645,171.353,503.9218,176.1476,497.0366,187.8514Z"/><path d="M485.0957,209.3687l-48.0605-33.14,1.1884-1.6558c2.7481-3.8266,4.9512-7.3291,6.8955-10.4184,4.6182-7.3408,7.67-12.19,12.7745-13.0571,4.1015-.6954,8.9091,1.4443,16.0722,7.1538,3.7549,2.8794,7.7119,5.4116,11.2022,7.6455,10.5664,6.7617,19.6914,12.6015,13.5918,22.9687l-.06.0952Zm-42.4463-34.127,41.3721,28.5273L495.34,186.7905c3.918-6.7177-1.246-10.4331-12.3281-17.5244-3.5576-2.2768-7.59-4.8574-11.51-7.8638-6.1309-4.8857-10.12-6.8427-12.9385-6.3608-3.3418.5669-6.0137,4.8145-10.0586,11.2432C446.8125,168.9736,444.9277,171.97,442.6494,175.2417Z"/><path class="b" d="M428.93,140.2105l-12.7877,19.1829-44.71-30.8291c14.0091-19.4473,14.4417-31.3774,32.7966-16.6538C419.3213,123.5156,435.8863,128.4716,428.93,140.2105Z"/><path d="M416.6787,162.1934l-48.0635-33.1412,1.1934-1.6567c2.8154-3.9077,5.0723-7.5034,7.0635-10.6763,4.5127-7.1909,7.7734-12.3862,12.958-13.2612,4.083-.69,8.7666,1.3716,15.6494,6.8926,3.7949,2.917,7.8232,5.4917,11.3779,7.7632,10.6992,6.8383,19.9405,12.7441,13.793,23.1162l-.0566.09Zm-42.4433-34.125,41.3691,28.5254,11.6309-17.4473c3.9482-6.7178-1.2911-10.478-12.5323-17.6621-3.623-2.3155-7.73-4.94-11.6933-7.9883-5.7784-4.6333-9.7491-6.562-12.5137-6.0938-3.416.5767-6.13,4.9-10.2363,11.4434C378.5205,121.6172,376.5811,124.7065,374.2354,128.0684Z"/><path class="b" d="M361.3442,93.6084l-12.7877,19.1829-44.71-30.8291c14.0091-19.4473,14.4418-31.3774,32.7966-16.6537C351.736,76.9135,368.3009,81.87,361.3442,93.6084Z"/><path d="M349.0938,115.5913,301.03,82.45l1.1933-1.6567c2.8155-3.9078,5.0723-7.5035,7.0625-10.6763,4.5137-7.1909,7.7744-12.3862,12.959-13.2612,4.085-.6905,8.7676,1.3715,15.6494,6.8925,3.794,2.917,7.8223,5.4912,11.376,7.7627,10.7,6.8384,19.9414,12.7442,13.7949,23.1167l-.0566.09ZM306.65,81.4663,348.02,109.9917,359.65,92.5449c3.9482-6.7182-1.292-10.4785-12.5342-17.6636-3.6221-2.3149-7.7285-4.9389-11.6924-7.9873-5.7783-4.6333-9.74-6.5664-12.5136-6.0937-3.4151.5762-6.1289,4.8994-10.2354,11.4434C310.9355,75.0151,308.9961,78.1045,306.65,81.4663Z"/><path class="a" d="M488.2809,479.5862v98.2482a21.11,21.11,0,0,1-20.8992,21.3277H232.2443a21.11,21.11,0,0,1-20.8992-21.3277V479.5862a21.1094,21.1094,0,0,1,20.8992-21.3276H467.3817A21.1094,21.1094,0,0,1,488.2809,479.5862Z"/><path d="M467.3818,601.1621H232.2441a23.1426,23.1426,0,0,1-22.8989-23.3281V479.5859a23.1424,23.1424,0,0,1,22.8989-23.3271H467.3818a23.1425,23.1425,0,0,1,22.8995,23.3271V577.834A23.1428,23.1428,0,0,1,467.3818,601.1621ZM232.2441,460.2588a19.1381,19.1381,0,0,0-18.8989,19.3271V577.834a19.139,19.139,0,0,0,18.8989,19.3281H467.3818a19.14,19.14,0,0,0,18.8995-19.3281V479.5859a19.1386,19.1386,0,0,0-18.8995-19.3271Z"/><path d="M467.3818,601.6621H232.2441a23.6432,23.6432,0,0,1-23.3989-23.8281V479.5859a23.6424,23.6424,0,0,1,23.3989-23.8271H467.3818a23.6429,23.6429,0,0,1,23.3995,23.8271V577.834A23.6437,23.6437,0,0,1,467.3818,601.6621ZM232.2441,456.7588a22.6419,22.6419,0,0,0-22.3989,22.8271V577.834a22.6421,22.6421,0,0,0,22.3989,22.8281H467.3818a22.6425,22.6425,0,0,0,22.3995-22.8281V479.5859a22.6423,22.6423,0,0,0-22.3995-22.8271ZM467.3818,597.6621H232.2441a19.639,19.639,0,0,1-19.3989-19.8281V479.5859a19.6387,19.6387,0,0,1,19.3989-19.8271H467.3818a19.6388,19.6388,0,0,1,19.3995,19.8271V577.834A19.6391,19.6391,0,0,1,467.3818,597.6621ZM232.2441,460.7588a18.6382,18.6382,0,0,0-18.3989,18.8271V577.834a18.6385,18.6385,0,0,0,18.3989,18.8281H467.3818a18.6386,18.6386,0,0,0,18.3995-18.8281V479.5859a18.6384,18.6384,0,0,0-18.3995-18.8271Z"/><path class="a" d="M458.8891,435.397v22.8616H404.6776c.7936-25.1788-5.2309-33.8927,18.9439-32.29C442.4508,426.9093,458.0928,421.7082,458.8891,435.397Z"/><path d="M460.8887,460.2588H402.6133l.0654-2.063c.1524-4.8325.0508-9.0312-.0381-12.7363-.2138-8.8355-.3545-14.6724,3.3867-18.2593,3.05-2.9243,8.1836-3.8594,17.7266-3.2271,4.6631.2325,9.2666.0748,13.3281-.0649,12.39-.4233,23.0967-.7925,23.8037,11.3726l.003.1162Zm-54.16-4h50.16V435.457c-.4864-7.8589-6.7364-7.997-19.67-7.5507-4.1407.142-8.836.3037-13.6973.06-8.1035-.5356-12.6367.1177-14.7266,2.1211-2.4678,2.3662-2.3437,7.502-2.1562,15.2759C406.7168,448.5874,406.8037,452.18,406.7285,456.2588Z"/><path class="a" d="M377.2453,435.397v22.8616H323.0338c.7936-25.1788-5.231-33.8927,18.9439-32.29C360.807,426.9093,376.449,421.7082,377.2453,435.397Z"/><path d="M379.2451,460.2588H320.97l.0655-2.063c.1523-4.8325.0507-9.0312-.0381-12.7363-.2139-8.8355-.3545-14.6724,3.3867-18.2593,3.05-2.9243,8.1875-3.8594,17.7256-3.2271,4.6631.2334,9.2666.0748,13.3281-.0649,12.4014-.4238,23.0977-.791,23.8047,11.3726l.0029.1162Zm-54.16-4h50.16V435.457c-.4863-7.8589-6.7412-7.997-19.67-7.5507-4.1406.142-8.8369.3037-13.6973.06-8.1035-.5356-12.6367.1177-14.7265,2.1211-2.4678,2.3662-2.3438,7.502-2.1563,15.2759C325.0732,448.5874,325.16,452.18,325.085,456.2588Z"/></svg>