<svg xmlns="http://www.w3.org/2000/svg" width="70" height="75" viewBox="0 0 756.8 940.99"><path d="M239.35,748s-128.7,0-181.53,0c-45.52.94-38.33-1.09-38.82-60.28,1.11-55.82-3-121.35,3.21-124.9,10-10.9,16.5-5.53,19.14-6.82H237.24c26.82.25,17,24.82,18.76,76C254.24,723.14,263.86,746.54,239.35,748Z" transform="translate(-16.67 -8.59)" style="fill:#dce2f0;stroke:#000;stroke-miterlimit:10;stroke-width:4px"/><path d="M443,350.06V483.94C443,500,428.68,513,411,513H51c-17.68,0-32-13-32-29.06V350.06C19,334,33.32,321,51,321H411C428.68,321,443,334,443,350.06Z" transform="translate(-16.67 -8.59)" style="fill:#dce2f0;stroke:#000;stroke-miterlimit:10;stroke-width:4px"/><path d="M398,289.85V321H315c1.21-34.31-8-46.18,29-44C372.83,278.28,396.78,271.2,398,289.85Z" transform="translate(-16.67 -8.59)" style="fill:#dce2f0;stroke:#000;stroke-miterlimit:10;stroke-width:4px"/><path d="M271,289.63V321H188c1.21-34.59-8-46.14,29-44C245.67,278.25,269.81,271.3,271,289.63Z" transform="translate(-16.67 -8.59)" style="fill:#dce2f0;stroke:#000;stroke-miterlimit:10;stroke-width:4px"/><path d="M146,289.63V321H63c1.21-34.59-8-46.14,29-44C120.67,278.25,144.81,271.3,146,289.63Z" transform="translate(-16.67 -8.59)" style="fill:#dce2f0;stroke:#000;stroke-miterlimit:10;stroke-width:4px"/><path d="M740,584.06V717.94C740,734,725.68,747,708,747H348c-17.68,0-32-13-32-29.06V584.06C316,568,330.32,555,348,555H708C725.68,555,740,568,740,584.06Z" transform="translate(-16.67 -8.59)" style="fill:#dce2f0;stroke:#000;stroke-miterlimit:10;stroke-width:4px"/><path d="M695,523.85V555H612c1.21-34.31-8-46.18,29-44C669.83,512.28,693.78,505.2,695,523.85Z" transform="translate(-16.67 -8.59)" style="fill:#dce2f0;stroke:#000;stroke-miterlimit:10;stroke-width:4px"/><path d="M745,259.12,662.17,369.64c-9.93,13.26-29.83,16.71-44.48,7.72l-298.22-183c-14.64-9-18.46-27-8.53-40.26L393.72,43.57c9.93-13.25,29.83-16.71,44.48-7.72l298.21,183C751.06,227.85,754.88,245.86,745,259.12Z" transform="translate(-16.67 -8.59)" style="fill:#dce2f0;stroke:#000;stroke-miterlimit:10;stroke-width:4px"/><path d="M744.41,186.53,725.3,212l-68.45-42c21.43-26.57,21.68-42,50.32-21.7C730.21,164.05,755,170.59,744.41,186.53Z" transform="translate(-16.67 -8.59)" style="fill:#dce2f0;stroke:#000;stroke-miterlimit:10;stroke-width:4px"/><path d="M640.13,121.62l-19.58,26.14-68.45-42c21.45-26.5,22.11-42.76,50.21-22.7C625.42,98.87,650.78,105.62,640.13,121.62Z" transform="translate(-16.67 -8.59)" style="fill:#dce2f0;stroke:#000;stroke-miterlimit:10;stroke-width:4px"/><path d="M536.65,58.11,517.08,84.25l-68.46-42c21.45-26.5,22.11-42.76,50.22-22.7C521.94,35.37,547.31,42.12,536.65,58.11Z" transform="translate(-16.67 -8.59)" style="fill:#dce2f0;stroke:#000;stroke-miterlimit:10;stroke-width:4px"/><path d="M21.29,947.72V812.66H69.23q23.73,0,36.13,9.19t12.39,27.36a28.45,28.45,0,0,1-5.19,16.7q-5.18,7.43-15.18,11.5,11.34,3,17.54,11.18t6.2,19.71q0,19-12.64,29.22t-36.17,10.2ZM45.6,869.53H69.43q11.32,0,17.72-5t6.39-14q0-10-5.91-14.47t-18.4-4.45H45.6Zm0,17.25V929h27q11.43,0,17.87-5.48T96.9,908.3q0-21.06-22.29-21.52Z" transform="translate(-16.67 -8.59)" style="fill:#dce2f0"/><path d="M168,947.72H144.65V805.24H168Z" transform="translate(-16.67 -8.59)" style="fill:#dce2f0"/><path d="M189,896.61A57.52,57.52,0,0,1,195.09,870a43.32,43.32,0,0,1,17-18.19,49.29,49.29,0,0,1,25.17-6.35q21,0,34.16,13.08t14.17,34.69l.09,5.29a58,58,0,0,1-5.91,26.53,42.73,42.73,0,0,1-16.91,18.09q-11,6.39-25.41,6.4-22,0-35.21-14.15T189,897.72Zm23.35,1.95q0,15.5,6.63,24.26t18.44,8.76q11.82,0,18.4-8.9t6.58-26.07q0-15.21-6.77-24.12t-18.4-8.9q-11.43,0-18.16,8.76T212.39,898.56Z" transform="translate(-16.67 -8.59)" style="fill:#dce2f0"/><path d="M348.14,931.58q8.75,0,14.51-4.91a16.62,16.62,0,0,0,6.15-12.16h22A32.45,32.45,0,0,1,384.75,932a39.42,39.42,0,0,1-15.38,12.85,47.2,47.2,0,0,1-20.94,4.73q-21.81,0-34.59-13.64t-12.78-37.66V896q0-22.9,12.69-36.68t34.58-13.78q18.54,0,30.22,10.44t12.25,27.41h-22a20.33,20.33,0,0,0-6.1-14.2q-5.71-5.56-14.56-5.56-11.34,0-17.48,7.93t-6.25,24.07v3.62q0,16.32,6.1,24.35T348.14,931.58Z" transform="translate(-16.67 -8.59)" style="fill:#dce2f0"/><path d="M442.2,904.68,431.82,915v32.74H408.48V805.24h23.34v82.19l7.31-8.81,28.72-31.26h28l-38.62,41.83L500,947.72H473Z" transform="translate(-16.67 -8.59)" style="fill:#dce2f0"/><path d="M544.9,812.66l40.36,103.52,40.25-103.52h31.42V947.72H632.72V903.2l2.4-59.56L593.81,947.72H576.42l-41.22-104,2.4,59.46v44.52H513.39V812.66Z" transform="translate(-16.67 -8.59)" style="fill:#dce2f0"/><path d="M710,929h63.51v18.73H685.65V812.66H710Z" transform="translate(-16.67 -8.59)" style="fill:#dce2f0"/></svg>