<svg xmlns="http://www.w3.org/2000/svg" viewBox="0 0 778.93 990.62"><defs><style>.cls-1,.cls-2{fill:#dce2f0;}.cls-1{stroke:#000;stroke-miterlimit:10;stroke-width:4px;}.cls-2{font-size:189.97px;font-family:Roboto-Medium, Roboto;font-weight:500;}</style></defs><g id="Layer_2" data-name="Layer 2"><g id="Layer_1-2" data-name="Layer 1"><path class="cls-1" d="M232.28,739.41s-128.7,0-181.53,0c-45.52.94-38.33-1.09-38.82-60.28,1.11-55.82-3-121.35,3.21-124.9,10-10.9,16.5-5.53,19.14-6.82H230.16c26.83.25,17,24.83,18.77,76C247.16,714.55,256.79,738,232.28,739.41Z"/><path class="cls-1" d="M435.93,341.47V475.35c0,16.06-14.32,29.06-32,29.06h-360c-17.68,0-32-13-32-29.06V341.47c0-16.05,14.31-29.06,32-29.06h360C421.61,312.41,435.93,325.42,435.93,341.47Z"/><path class="cls-1" d="M390.93,281.26v31.15h-83c1.21-34.31-8-46.18,29-44C365.76,269.69,389.71,262.61,390.93,281.26Z"/><path class="cls-1" d="M263.93,281v31.37h-83c1.21-34.59-8-46.14,29-44C238.59,269.67,262.74,262.72,263.93,281Z"/><path class="cls-1" d="M138.93,281v31.37h-83c1.21-34.59-8-46.14,29-44C113.59,269.67,137.74,262.72,138.93,281Z"/><path class="cls-1" d="M732.93,575.47V709.35c0,16.06-14.32,29.06-32,29.06h-360c-17.68,0-32-13-32-29.06V575.47c0-16.05,14.31-29.06,32-29.06h360C718.61,546.41,732.93,559.42,732.93,575.47Z"/><path class="cls-1" d="M687.93,515.26v31.15h-83c1.21-34.31-8-46.18,29-44C662.76,503.69,686.71,496.61,687.93,515.26Z"/><path class="cls-1" d="M737.88,250.53,655.09,361.05c-9.93,13.26-29.83,16.72-44.47,7.73l-298.22-183c-14.65-9-18.47-27-8.54-40.26L386.65,35c9.93-13.25,29.83-16.71,44.47-7.72l298.22,183C744,219.26,747.8,237.27,737.88,250.53Z"/><path class="cls-1" d="M737.33,178l-19.1,25.5-68.46-42c21.44-26.57,21.69-42,50.33-21.7C723.14,155.46,747.87,162,737.33,178Z"/><path class="cls-1" d="M633.06,113l-19.58,26.14L545,97.16c21.44-26.5,22.11-42.76,50.21-22.69C618.35,90.28,643.71,97,633.06,113Z"/><path class="cls-1" d="M529.58,49.53,510,75.67l-68.45-42C463,7.16,463.66-9.1,491.76,11,514.87,26.78,540.23,33.53,529.58,49.53Z"/><text class="cls-2" transform="translate(0 939.13) scale(1.04 1)">BlockML</text></g></g></svg>